
<svg
      xmlns="http://www.w3.org/2000/svg"
      width="283.465"
      height="141.732"
      version="1.1"
      viewBox="0 0 283.465 141.732"
    >
      <g fillRule="evenodd">
        <path
          fill="#6f0c15"
          d="M111.36 31.062l6.286 3.142-.051 7.81-6.286 7.715zM126.36 33.586l1.702 2.208-19.524 23.884-1.896-1.71zM127.538 32.765l24.563 9.468 12.318 18.422-18.19.062zM146.228 61.837h18.31v2.38h-18.31zM158.454 50.837h9.194l-2.634 3.238h-4.456zM157.989 50.071l10.257-.049 6.101-7.705-21.36-.095zM174.803 42.43l11.746 17.528-.479.32-11.745-17.527zM104.293 99.374c-28.706 3.513-28.329-14.614 25.257-15.069 4.002-.034 8.317-.273 12.974-.319l55.056-.16.583 1.405c-53.417 1.998-96.435 5.273-93.87 14.143z"
        ></path>
        <path
          fill="#000200"
          d="M184.9 72.198h1.94c.207 0 .615-.07 1.217-.204.304-.059.553-.215.744-.467.193-.253.29-.54.29-.865 0-.48-.152-.85-.457-1.106-.304-.26-.874-.388-1.715-.388h-2.02zm-4.607 8.819V66.16h7.65c1.418 0 2.504.12 3.25.366.751.242 1.356.695 1.816 1.353.46.66.688 1.466.688 2.413 0 .823-.176 1.536-.529 2.134a4.08 4.08 0 01-1.452 1.46c-.39.235-.93.432-1.612.587.547.184.944.364 1.193.547.166.12.412.384.733.781.319.398.533.706.64.924l2.231 4.292h-5.188l-2.451-4.53c-.312-.589-.588-.97-.83-1.146a1.946 1.946 0 00-1.128-.342h-.405v6.018zM172.815 66.16h4.607v14.857h-4.607zM164.9 74.122h6.393v2.014h-6.394z"
        ></path>
        <path
          fill="#000200"
          d="M150.015 66.16h5.063l2.632 4.572 2.556-4.572h5l-4.616 7.196 5.052 7.66h-5.167l-2.915-4.772-2.936 4.773h-5.125l5.121-7.744zM136.047 66.16h12.284v3.174h-7.677V71.7h7.117v3.03h-7.117v2.925h7.905v3.362h-12.512zM124.576 72.198h1.94c.208 0 .616-.07 1.217-.204.305-.059.554-.215.744-.467.194-.253.29-.54.29-.865 0-.48-.152-.85-.456-1.106-.304-.26-.875-.388-1.715-.388h-2.02zm-4.606 8.819V66.16h7.65c1.417 0 2.503.12 3.25.366.75.242 1.356.695 1.816 1.353.46.66.688 1.466.688 2.413 0 .823-.176 1.536-.53 2.134a4.078 4.078 0 01-1.452 1.46c-.39.235-.93.432-1.611.587.546.184.944.364 1.193.547.166.12.411.384.733.781.318.398.533.706.64.924l2.23 4.292h-5.187l-2.452-4.53c-.311-.589-.588-.97-.83-1.146a1.946 1.946 0 00-1.127-.342h-.405v6.018zM111.936 75.352l-1.622-5.34-1.629 5.34zm.972 3.216h-5.202l-.747 2.449h-4.686l5.593-14.857h5.024l5.568 14.856h-4.807zM89.927 66.16h4.586v11.205h7.18v3.652H89.927zM168.197 87.522v6.956h-1.81v-.746c-.253.317-.484.532-.693.644a1.968 1.968 0 01-.93.219c-.685 0-1.21-.261-1.572-.784-.361-.523-.542-1.16-.542-1.906 0-.837.2-1.477.6-1.92.4-.444.907-.666 1.524-.666.301 0 .573.05.818.15.246.103.463.253.652.456v-2.403zm-1.938 4.415c0-.396-.084-.693-.251-.887a.798.798 0 00-.635-.293.7.7 0 00-.563.282c-.15.186-.227.5-.227.942 0 .413.078.714.235.907.155.193.35.288.58.288.246 0 .45-.097.615-.29.163-.194.246-.51.246-.949zm8.71.5h-3.877c.036.31.118.542.253.694.186.218.43.327.732.327.19 0 .372-.047.542-.141.105-.06.219-.165.338-.316l1.905.175c-.292.505-.643.87-1.055 1.088-.41.22-1.002.33-1.77.33-.67 0-1.194-.093-1.578-.283-.382-.188-.7-.487-.952-.897-.251-.411-.377-.894-.377-1.447 0-.789.252-1.429.757-1.916.504-.487 1.202-.732 2.09-.732.723 0 1.291.11 1.709.329.418.218.737.534.955.95.219.415.327.956.327 1.621zm-1.963-.922c-.037-.376-.14-.644-.303-.806-.163-.162-.377-.243-.644-.243a.88.88 0 00-.739.367c-.116.152-.19.38-.223.682zm6.606.99l1.836.205a2.596 2.596 0 01-.498.997c-.23.28-.527.499-.886.654-.358.156-.815.233-1.368.233-.536 0-.981-.05-1.338-.148a2.36 2.36 0 01-.918-.486 2.434 2.434 0 01-.602-.785c-.146-.302-.219-.7-.219-1.197 0-.518.09-.95.266-1.295.13-.255.307-.481.533-.682.225-.2.455-.352.693-.449.377-.155.86-.233 1.447-.233.824 0 1.45.148 1.883.44.433.295.735.724.91 1.29l-1.817.242a.844.844 0 00-.31-.487c-.15-.108-.353-.164-.608-.164a.983.983 0 00-.777.344c-.197.23-.296.576-.296 1.042 0 .415.099.73.295.944a.967.967 0 00.75.323c.252 0 .466-.065.637-.193.173-.13.301-.327.387-.594zm2.487-.533c0-.771.26-1.406.778-1.905.518-.498 1.217-.748 2.098-.748 1.009 0 1.77.293 2.285.88.412.472.62 1.054.62 1.743 0 .778-.256 1.412-.77 1.91-.513.495-1.224.742-2.13.742-.808 0-1.462-.205-1.961-.618-.614-.51-.92-1.179-.92-2.005zm1.934-.004c0 .452.09.785.272 1a.856.856 0 00.683.325.851.851 0 00.682-.32c.178-.211.267-.553.267-1.023 0-.438-.09-.764-.269-.98a.838.838 0 00-.667-.32.87.87 0 00-.695.326c-.183.218-.273.549-.273.992zm4.799-2.532h1.81v.822c.175-.357.355-.604.54-.738.186-.134.414-.2.686-.2.286 0 .599.088.937.266l-.599 1.372c-.228-.096-.41-.143-.542-.143a.67.67 0 00-.59.315c-.199.294-.3.846-.3 1.654v1.694h-1.942z"
        ></path>
        <g fill="#1b1918">
          <path d="M113.358 104.925c.051-.266.077-.475.077-.629 0-.066-.05-.121-.153-.165a.651.651 0 00-.239-.065c-.005 0-.008-.01-.008-.032 0-.102.016-.168.046-.199.539.026.835.038.891.038.118 0 .42-.012.907-.038v.031c0 .133-.019.2-.054.2a.953.953 0 00-.25.065c-.126.044-.198.083-.22.118-.03.072-.09.3-.184.684l-.337 1.704a3.899 3.899 0 00-.077.729c0 .716.312 1.075.937 1.075.389 0 .713-.115.97-.346.259-.23.447-.652.565-1.266l.353-1.858c.072-.363.105-.599.1-.706-.004-.062-.082-.11-.23-.146a1.628 1.628 0 00-.346-.053c-.005 0-.008-.016-.008-.046 0-.088.019-.15.054-.185.43.021.703.031.821.031.196 0 .486-.01.876-.03 0 .152-.019.23-.054.23-.051 0-.16.018-.326.053-.167.036-.26.07-.28.1-.041.087-.105.338-.192.752l-.354 1.828c-.153.803-.41 1.36-.771 1.669-.36.31-.84.465-1.439.465-.461 0-.824-.133-1.09-.396-.266-.263-.4-.656-.4-1.179 0-.194.03-.452.092-.774zm5.61-.107c.011-.062.186-.092.524-.092.076 0 .14.005.191.014l-.191.923h.69c.037 0 .054.035.054.107a.5.5 0 01-.084.277h-.73l-.384 1.971a.59.59 0 00-.022.185c0 .128.025.193.076.193s.12-.036.207-.105c.088-.068.157-.131.21-.188l.12-.123c.01 0 .034.025.07.074.035.048.053.082.053.103-.056.123-.216.29-.48.5-.263.209-.487.314-.671.314a.302.302 0 01-.241-.111.461.461 0 01-.097-.311c0-.113.023-.274.07-.483l.39-2.02h-.49c-.016 0-.024-.03-.024-.092 0-.051.012-.108.035-.17a.356.356 0 01.065-.121h.491zm2.42.706c.091 0 .17.036.234.111a.45.45 0 01.095.304 2.6 2.6 0 01-.061.492l-.314 1.587a.876.876 0 00-.016.185c0 .128.026.193.077.193.051 0 .12-.036.207-.105.086-.068.157-.131.21-.187l.12-.124c.01 0 .033.025.07.074.035.048.053.082.053.103-.061.123-.223.29-.484.5-.261.209-.484.314-.667.314a.306.306 0 01-.243-.111.461.461 0 01-.095-.311c0-.113.02-.274.061-.483l.299-1.528c.02-.107.031-.19.031-.246 0-.123-.026-.185-.077-.185-.062 0-.145.05-.253.147a2.719 2.719 0 00-.238.237c-.01 0-.033-.025-.07-.076-.035-.051-.053-.088-.053-.108.056-.117.212-.277.465-.48.253-.202.469-.303.648-.303zm.23-1.719c.102 0 .187.037.257.111.07.074.103.165.103.273 0 .148-.05.278-.15.39a.461.461 0 01-.356.17.319.319 0 01-.254-.118.433.433 0 01-.1-.289c0-.144.05-.268.146-.376a.461.461 0 01.354-.161zm.86 4.26l.675-3.478c.03-.158.046-.27.046-.338 0-.102-.14-.153-.422-.153-.016 0-.023-.017-.023-.054 0-.067.02-.12.061-.161.159-.01.357-.045.591-.104.236-.058.415-.11.539-.157.04.021.06.072.06.153 0 .041-.038.252-.114.63l-.707 3.615a1.165 1.165 0 00-.015.185c0 .128.025.193.076.193.047 0 .113-.036.2-.105.087-.068.158-.131.211-.187l.12-.124c.01 0 .032.025.068.074.036.048.053.082.053.103-.056.123-.216.29-.48.5-.262.209-.486.314-.67.314a.294.294 0 01-.238-.111.476.476 0 01-.092-.311c0-.113.02-.274.06-.483zm1.45 1.912c0-.01.057-.06.17-.15.113-.09.225-.212.338-.365a.815.815 0 00.169-.491c0-.062-.019-.155-.054-.28a1.179 1.179 0 01-.054-.265c0-.148.066-.272.195-.369a.742.742 0 01.458-.146c.102 0 .174.013.214.04.016.091.024.163.024.214 0 .245-.054.476-.161.69-.19.518-.58.962-1.167 1.337-.026-.01-.054-.04-.084-.09a.242.242 0 01-.047-.125zm4.869-4.469c.307 0 .548.088.72.262a.383.383 0 01.062.223.476.476 0 01-.08.287.248.248 0 01-.21.111c-.104 0-.214-.086-.33-.26-.119-.175-.25-.261-.393-.261-.102 0-.179.03-.23.092a.384.384 0 00-.077.252c0 .113.048.248.146.404.097.156.206.303.326.437.12.137.231.292.33.468.1.177.15.34.15.489 0 .28-.115.51-.346.69-.23.18-.513.269-.852.269-.306 0-.55-.09-.73-.269a.343.343 0 01-.053-.199.52.52 0 01.081-.296c.054-.08.122-.12.204-.12.072 0 .137.03.195.086a.791.791 0 01.142.18.58.58 0 00.158.176c.07.054.146.082.234.082.102 0 .181-.032.237-.094a.348.348 0 00.085-.245c0-.144-.08-.318-.238-.526a17.325 17.325 0 01-.476-.652c-.158-.227-.238-.437-.238-.626 0-.246.115-.467.346-.664.23-.196.51-.296.837-.296zm2.118.016c.092 0 .17.036.235.111a.45.45 0 01.096.304 2.6 2.6 0 01-.062.491l-.314 1.588a.87.87 0 00-.016.185c0 .128.026.193.077.193.051 0 .12-.036.207-.105.086-.068.157-.131.211-.188l.12-.123c.01 0 .032.025.069.074.035.048.053.082.053.103-.061.123-.222.29-.484.5-.261.209-.484.314-.667.314a.306.306 0 01-.242-.111.461.461 0 01-.096-.311c0-.113.02-.274.062-.483l.298-1.528c.021-.107.032-.19.032-.246 0-.123-.027-.185-.078-.185-.061 0-.145.05-.252.147a2.719 2.719 0 00-.24.237c-.01 0-.032-.025-.069-.076-.035-.051-.053-.088-.053-.108.056-.118.212-.277.465-.48.253-.202.469-.303.648-.303zm.231-1.719c.102 0 .187.037.257.111.07.074.103.165.103.273 0 .148-.05.278-.15.39a.461.461 0 01-.355.17.319.319 0 01-.255-.119.433.433 0 01-.1-.288c0-.144.05-.268.146-.376a.461.461 0 01.354-.161zm3.347 1.719c.379 0 .567.26.567.783 0 .057-.022.212-.068.468.154-.277.362-.554.625-.833.263-.278.482-.418.657-.418.368 0 .552.225.552.676 0 .183-.04.46-.123.83l-.199.988a.871.871 0 00-.015.185c0 .128.026.193.077.193.046 0 .112-.036.199-.105.088-.068.157-.131.21-.188l.12-.123c.01 0 .034.025.07.074.035.048.053.082.053.103-.056.123-.216.29-.48.5-.263.209-.487.314-.671.314a.296.296 0 01-.239-.111.484.484 0 01-.092-.311c0-.102.021-.264.062-.483l.223-1.09c.046-.211.07-.354.07-.432a.565.565 0 00-.04-.24c-.025-.054-.074-.082-.146-.082-.153 0-.366.223-.64.668-.274.446-.45.865-.527 1.26l-.153.767c-.132.021-.25.03-.353.03-.128 0-.246-.009-.353-.03l.4-2.019c.035-.174.053-.297.053-.368 0-.206-.064-.308-.193-.308-.096 0-.227.11-.394.33-.166.22-.324.485-.469.796-.145.309-.241.587-.288.831l-.153.738a1.654 1.654 0 01-.699 0l.461-2.38c.02-.112.03-.194.03-.245 0-.123-.024-.185-.077-.185-.06 0-.146.05-.256.147-.11.097-.188.177-.235.237-.014 0-.04-.025-.072-.076-.034-.051-.05-.088-.05-.108.057-.117.211-.277.464-.48.254-.202.468-.303.64-.303.099 0 .179.037.243.111a.448.448 0 01.096.304c0 .097-.018.248-.054.452l-.092.454c.159-.293.364-.585.619-.88.252-.294.466-.441.64-.441zm5.136.523a.608.608 0 00-.362.137 1.316 1.316 0 00-.314.338l-.307 1.611c-.056.277.028.416.253.416.164 0 .333-.096.507-.285.174-.19.317-.434.43-.737.112-.301.169-.601.169-.897a.844.844 0 00-.093-.418.302.302 0 00-.283-.165zm.33-.523c.255 0 .452.108.59.326.138.218.208.472.208.764 0 .568-.224 1.1-.673 1.597-.446.496-.879.744-1.292.744a.526.526 0 01-.3-.076l-.2 1.036a.898.898 0 00-.022.191c0 .129.046.202.138.223.077.021.184.032.322.032.021 0 .032.022.032.068 0 .077-.01.133-.032.169h-.567c-.319.005-.66.029-1.03.07-.02-.011-.03-.032-.03-.062 0-.097.013-.159.038-.185.159 0 .274-.04.346-.122.035-.05.072-.169.107-.354l.545-2.808-.33.298a.32.32 0 01-.062-.191c0-.032.014-.059.038-.085.236-.245.38-.392.431-.438l.23-1.166a1.51 1.51 0 01.346-.039c.128 0 .246.018.353.054-.061.287-.095.437-.1.453a.586.586 0 00.088-.084 1.553 1.553 0 01.245-.219.894.894 0 01.354-.165.822.822 0 01.227-.031zm1.204 2.541l.676-3.478c.03-.158.046-.27.046-.338 0-.102-.14-.153-.422-.153-.016 0-.024-.017-.024-.054 0-.067.021-.12.062-.161.158-.01.356-.045.59-.104.237-.058.416-.11.54-.157.04.021.06.072.06.153 0 .041-.039.252-.115.63l-.707 3.615a1.165 1.165 0 00-.014.185c0 .128.024.193.076.193.047 0 .112-.036.2-.105.087-.068.157-.131.211-.187l.12-.124c.01 0 .032.025.067.074.037.048.054.082.054.103-.056.123-.216.29-.48.5-.263.209-.487.314-.67.314a.294.294 0 01-.239-.111.476.476 0 01-.091-.311c0-.113.02-.274.06-.483zm2.818-2.541c.098 0 .177.036.238.111a.463.463 0 01.092.304c0 .148-.02.312-.062.491l-.222 1.09c-.04.22-.06.363-.06.43 0 .215.06.322.183.322.087 0 .212-.103.376-.311.164-.207.32-.47.473-.786.15-.317.254-.618.31-.899l.146-.699c.087-.024.2-.038.338-.038.133 0 .251.014.353.038l-.469 2.441c-.01.057-.015.118-.015.185 0 .128.026.193.077.193.046 0 .113-.036.199-.105.088-.068.159-.131.212-.188l.118-.123c.01 0 .034.025.07.074.035.048.053.082.053.103-.056.123-.216.29-.479.5-.263.209-.487.314-.672.314a.291.291 0 01-.237-.112.476.476 0 01-.093-.31 3.31 3.31 0 01.07-.523 6.28 6.28 0 01.027-.145l.03-.165.012-.066c-.067.134-.17.298-.312.491-.14.196-.307.382-.498.561-.193.18-.355.269-.487.269-.349 0-.523-.223-.523-.668 0-.189.038-.465.115-.83l.185-.935c.02-.093.03-.174.03-.246 0-.123-.026-.185-.077-.185-.06 0-.146.05-.253.147a2.708 2.708 0 00-.239.237c-.009 0-.032-.025-.068-.076-.036-.051-.053-.088-.053-.108.056-.118.212-.277.467-.48.256-.202.472-.303.645-.303zm4.074 4.18c0-.119.075-.21.223-.277.148-.067.309-.1.483-.1.062.07.093.186.093.345 0 .195-.086.389-.258.583a1.49 1.49 0 01-.533.407h-.016a.122.122 0 01-.03.008.175.175 0 01-.096-.032c-.034-.02-.05-.038-.05-.052 0-.005.033-.033.1-.081.067-.049.132-.11.2-.185a.329.329 0 00.099-.219.26.26 0 00-.108-.215c-.07-.056-.107-.118-.107-.183zm1.323-4.196c.307 0 .548.088.72.262a.383.383 0 01.062.223.476.476 0 01-.08.287.248.248 0 01-.21.111c-.104 0-.214-.086-.33-.26-.119-.175-.25-.261-.392-.261-.103 0-.18.03-.231.092a.384.384 0 00-.077.252c0 .113.048.248.146.404.097.156.206.303.327.437.12.137.23.292.33.468.1.177.15.34.15.489 0 .28-.116.51-.347.69-.23.18-.513.269-.851.269-.307 0-.55-.09-.73-.269a.343.343 0 01-.054-.199.52.52 0 01.081-.296c.054-.08.122-.12.204-.12.072 0 .137.03.195.086a.792.792 0 01.143.18.58.58 0 00.157.176c.07.054.146.082.234.082.102 0 .181-.032.237-.094a.348.348 0 00.086-.245c0-.144-.08-.318-.239-.526a17.214 17.214 0 01-.475-.652c-.159-.227-.239-.437-.239-.626 0-.246.116-.467.346-.664.23-.196.51-.296.837-.296zm2.119.016c.091 0 .17.036.234.111a.45.45 0 01.096.304c0 .127-.021.291-.062.491l-.314 1.588a.868.868 0 00-.016.185c0 .128.026.193.077.193.051 0 .12-.036.207-.105a2 2 0 00.211-.188l.12-.123c.01 0 .032.025.069.074.035.048.054.082.054.103-.062.123-.223.29-.485.5-.26.209-.483.314-.667.314a.306.306 0 01-.242-.111.46.46 0 01-.096-.311c0-.113.02-.274.062-.483l.298-1.528c.021-.107.032-.19.032-.246 0-.123-.026-.185-.077-.185-.062 0-.146.05-.253.147a2.708 2.708 0 00-.239.237c-.01 0-.032-.025-.07-.076-.035-.051-.053-.088-.053-.108.056-.118.212-.277.465-.48.253-.202.47-.303.648-.303zm.23-1.719c.102 0 .188.037.257.111.07.074.104.165.104.273 0 .148-.05.278-.15.39a.461.461 0 01-.356.17.319.319 0 01-.254-.119.433.433 0 01-.1-.288c0-.144.048-.268.145-.376a.461.461 0 01.354-.161zm4.545 1.719c.379 0 .567.26.567.783 0 .057-.022.212-.068.468.153-.277.361-.554.625-.833.263-.278.482-.418.656-.418.368 0 .553.225.553.676 0 .183-.04.46-.123.83l-.2.988a.879.879 0 00-.015.185c0 .128.026.193.077.193.046 0 .113-.036.2-.105a1.86 1.86 0 00.21-.188l.12-.123c.01 0 .034.025.07.074.034.048.053.082.053.103-.057.123-.217.29-.48.5-.263.209-.487.314-.672.314a.296.296 0 01-.238-.111.484.484 0 01-.092-.311c0-.102.021-.264.062-.483l.222-1.09c.046-.211.07-.354.07-.432a.567.567 0 00-.04-.24c-.025-.054-.073-.082-.145-.082-.153 0-.367.223-.64.668-.274.446-.45.865-.527 1.26l-.153.767c-.133.021-.25.03-.353.03-.128 0-.246-.009-.354-.03l.4-2.019c.035-.174.054-.297.054-.368 0-.206-.065-.308-.193-.308-.097 0-.228.11-.394.33-.167.22-.324.485-.47.796-.145.309-.24.587-.287.831l-.154.738a1.654 1.654 0 01-.698 0l.46-2.38c.02-.112.031-.194.031-.245 0-.123-.025-.185-.077-.185-.06 0-.147.05-.257.147-.11.097-.187.177-.234.237-.015 0-.04-.025-.072-.076-.034-.051-.05-.088-.05-.108.056-.117.21-.277.463-.48.255-.202.468-.303.641-.303.099 0 .178.037.243.111a.449.449 0 01.095.304c0 .097-.017.248-.054.452l-.091.454c.158-.293.364-.585.618-.88.253-.294.466-.441.64-.441zm4.674.36c-.158 0-.31.11-.456.328-.147.217-.26.48-.342.786a3.419 3.419 0 00-.123.89c.005.22.04.393.107.518.067.126.159.189.277.189.164 0 .317-.114.461-.342.143-.228.252-.494.326-.798.074-.305.11-.59.104-.857 0-.224-.032-.4-.093-.525-.06-.126-.148-.189-.26-.189zm.085-.36c.347 0 .608.108.778.326.172.218.258.514.258.887 0 .363-.085.718-.254 1.063-.168.345-.39.626-.664.84-.273.215-.555.323-.847.323-.354 0-.616-.108-.788-.322-.17-.215-.257-.508-.257-.875 0-.35.085-.696.253-1.045.17-.347.392-.634.669-.86.276-.225.56-.337.852-.337zm3.5.008h.061l.008-.008.183-.921a2.45 2.45 0 00.048-.354c0-.102-.142-.153-.423-.153-.015 0-.023-.017-.023-.054 0-.067.02-.12.062-.161.158-.01.356-.045.595-.104a4.81 4.81 0 00.533-.157c.04.021.061.072.061.153a.966.966 0 01-.023.154 6.314 6.314 0 01-.058.266c-.022.1-.037.169-.042.21l-.698 3.615a.595.595 0 00-.024.185c0 .128.026.193.078.193.05 0 .12-.036.207-.105.086-.068.157-.131.21-.188a7.78 7.78 0 01.12-.123c.01 0 .032.025.07.074.034.048.053.082.053.103-.062.123-.223.29-.484.5-.262.209-.483.314-.668.314a.307.307 0 01-.242-.111.438.438 0 01-.096-.297c0-.06.01-.148.032-.26.004-.03.014-.084.03-.162a3.193 3.193 0 01-.36.495c-.088.1-.184.18-.289.24a.696.696 0 01-.917-.219c-.144-.205-.215-.464-.215-.776 0-.354.101-.709.303-1.067.202-.359.477-.658.826-.902.347-.244.708-.37 1.082-.38zm-.07.698a.244.244 0 00-.038-.203.2.2 0 00-.169-.081c-.204 0-.4.111-.587.334-.187.222-.331.48-.433.775a2.487 2.487 0 00-.154.81c0 .394.105.59.315.59.174 0 .357-.18.552-.544.194-.363.333-.75.414-1.158zM167.64 105.524c.246 0 .443.063.594.188a.57.57 0 01.227.456c0 .242-.12.472-.365.692-.243.22-.503.387-.78.498-.275.113-.496.169-.66.169-.02 0-.03.059-.03.177 0 .491.164.737.492.737.113 0 .23-.036.352-.107a1.38 1.38 0 00.266-.189l.134-.133c.01 0 .033.023.07.072.035.048.053.083.053.103-.067.134-.221.296-.465.488-.243.192-.477.288-.702.288-.317 0-.558-.106-.722-.318-.164-.213-.245-.511-.245-.895 0-.342.085-.687.257-1.033.171-.344.396-.63.676-.855.279-.225.561-.338.847-.338zm-.077.368c-.184 0-.374.156-.572.465-.197.31-.295.58-.295.81 0 .02.009.03.03.03.21 0 .433-.115.668-.349.236-.233.353-.465.353-.694a.342.342 0 00-.046-.189.151.151 0 00-.138-.073zm2.226-.368c.097 0 .177.036.239.111a.463.463 0 01.091.304c0 .133-.013.272-.038.414a14.58 14.58 0 01-.1.492c.144-.328.33-.63.56-.906.23-.276.45-.415.66-.415.185 0 .341.091.47.276 0 .425-.127.637-.378.637-.06 0-.13-.044-.207-.134-.076-.088-.15-.134-.223-.134-.086 0-.21.104-.368.315-.158.21-.312.475-.46.794-.149.32-.251.618-.308.895l-.137.744a2.022 2.022 0 01-.706 0l.46-2.38c.015-.112.023-.194.023-.245 0-.123-.026-.185-.077-.185-.062 0-.145.05-.253.147a2.722 2.722 0 00-.238.237c-.01 0-.033-.025-.07-.076-.035-.051-.053-.088-.053-.108.056-.118.213-.277.469-.48.255-.202.47-.303.644-.303zm3.079 0c.097 0 .177.036.24.111a.449.449 0 01.096.304c0 .097-.017.248-.053.452a5.655 5.655 0 01-.042.223l-.03.165-.012.066c.113-.231.313-.509.603-.834.29-.325.53-.487.725-.487.348 0 .522.225.522.676 0 .183-.038.46-.116.83l-.199.988a.595.595 0 00-.023.185c0 .128.026.193.077.193.051 0 .12-.036.207-.105a2.042 2.042 0 00.322-.31c.016 0 .04.024.074.073.032.048.05.082.05.103-.057.123-.216.29-.476.5-.262.209-.486.314-.676.314a.298.298 0 01-.235-.111.461.461 0 01-.095-.311c0-.102.023-.264.07-.483l.222-1.09c.04-.211.061-.354.061-.432 0-.214-.061-.322-.184-.322-.092 0-.222.104-.388.312-.167.207-.329.47-.487.786a3.397 3.397 0 00-.315.89l-.153.707a1.172 1.172 0 01-.33.038c-.139 0-.26-.013-.362-.038l.461-2.38c.02-.112.03-.194.03-.245 0-.123-.025-.185-.076-.185-.061 0-.148.05-.258.147-.11.097-.187.177-.233.237-.016 0-.04-.025-.073-.076-.033-.051-.05-.088-.05-.108.056-.117.21-.277.464-.48.254-.202.467-.303.642-.303zm2.424 3.001a.582.582 0 01.188-.384.535.535 0 01.373-.153.35.35 0 01.291.138c.072.093.1.2.085.323a.643.643 0 01-.185.395.51.51 0 01-.375.165.354.354 0 01-.289-.138.45.45 0 01-.087-.346zm1.36-4.49a.27.27 0 01.23.119c.056.08.076.18.061.304a5.406 5.406 0 01-.143.57c-.089.32-.209.74-.36 1.26-.152.52-.26.895-.326 1.125a.257.257 0 01-.104.15.262.262 0 01-.142.057c-.03 0-.046-.051-.046-.153.01-.19.052-.649.127-1.374.073-.728.139-1.26.195-1.598a.63.63 0 01.185-.318.454.454 0 01.322-.143z"></path>
        </g>
      </g>
    </svg>